<svg width="1419" height="1986" viewBox="0 0 1419 1986" fill="none" xmlns="http://www.w3.org/2000/svg">
<rect width="1418.2" height="1985.5" fill="white"/>
<path id="blue-outer" d="M312 218C586.5 85.4997 602 328.987 795 420.5C1017.5 526 1056 402.5 1118.5 528.5C1194.27 681.254 981.5 689.999 1033.5 849.499C1102.63 1061.53 1431 998 1265 1414C1099 1830 805.5 1572.5 629 1536C452.5 1499.5 217.43 1620.5 99.9999 1414C-32.5001 1181 184.5 1013.5 186 829.5C187.5 645.5 -7.52209 372.232 312 218Z" stroke="#69C6DB"/>
<path id="blue-inner" d="M651.582 983.789C664.058 977.654 664.763 988.927 673.534 993.163C683.647 998.048 685.396 992.33 688.237 998.163C691.681 1005.24 682.01 1005.64 684.374 1013.02C687.516 1022.84 702.44 1019.9 694.895 1039.16C687.351 1058.42 674.011 1046.5 665.99 1044.81C657.968 1043.12 647.284 1048.72 641.947 1039.16C635.925 1028.37 645.788 1020.62 645.856 1012.1C645.924 1003.58 637.06 990.929 651.582 983.789Z" stroke="#69C6DB"/>
<path id="red-outer" d="M546.283 164.396C957.819 -12.3812 983.275 377.235 1082.27 527.848C1181.26 678.462 1433.04 759.122 1370.06 988.175C1299 1246.62 1027.12 1211.62 895.947 1340.67C764.779 1469.71 709.451 1800.85 374.456 1683.97C86.6634 1583.56 247.875 1400.43 176.112 1199.25C93.381 967.315 -21.1706 1027.42 23.7307 894.13C78.1663 732.538 234.802 876.806 310.816 727.253C411.863 528.447 134.746 341.172 546.283 164.396Z" stroke="#E62644"/>
<path id="red-inner" d="M684.355 832.574C703.308 824.29 704.311 842.152 708.788 849.019C713.266 855.886 724.781 859.48 721.795 870.014C718.426 881.9 705.969 880.409 699.897 886.384C693.825 892.359 691.147 907.573 675.83 902.353C662.67 897.869 670.143 889.4 666.936 880.202C663.239 869.597 657.959 872.403 660.075 866.27C662.641 858.834 669.765 865.386 673.315 858.493C678.035 849.331 665.402 840.857 684.355 832.574Z" stroke="#E62644"/>
</svg>
