<svg width="1419" height="1986" viewBox="0 0 1419 1986" fill="none" xmlns="http://www.w3.org/2000/svg">
<path id="blue-outer" fill-rule="evenodd" clip-rule="evenodd" d="M554.298 205.694C635.629 232.794 617.555 282.478 696.628 352.487C710.183 366.037 838.957 474.44 988.064 469.924C1015.17 469.924 1046.8 463.148 1076.17 483.473C1112.32 506.057 1134.91 555.74 1128.14 600.907C1125.88 623.491 1116.84 625.749 1062.62 713.825C1033.25 761.251 1028.73 770.284 1026.47 781.576C1017.43 833.518 1046.8 878.686 1058.1 894.494C1089.73 941.92 1119.1 944.18 1186.88 998.381C1238.84 1039.03 1263.69 1059.36 1284.02 1088.72C1356.32 1197.12 1286.28 1361.98 1265.95 1411.66C1245.62 1463.6 1211.73 1540.39 1128.14 1594.59C1103.28 1610.4 1051.32 1646.53 979.028 1648.79C927.067 1651.05 888.66 1635.24 811.847 1603.62C728.256 1569.75 732.774 1560.71 683.071 1544.9C633.369 1529.1 601.74 1533.61 479.743 1535.87C357.746 1538.13 296.747 1540.39 280.933 1535.87C192.824 1513.29 91.16 1441.02 64.0495 1339.39C48.2351 1282.93 61.7898 1228.73 77.6042 1160.98C88.9003 1111.3 104.716 1070.65 125.048 1016.45C163.455 919.337 174.751 917.078 181.529 871.911C190.565 824.485 183.787 788.353 172.491 716.086C156.677 614.459 140.863 614.458 136.344 551.224C134.085 526.382 131.825 451.857 167.972 368.297C183.787 329.905 201.86 289.253 242.526 250.861C294.488 205.694 353.228 198.919 396.153 192.144C436.819 187.627 497.818 178.593 554.298 205.694Z" stroke="#69C6DB" stroke-miterlimit="10"/>
<path id="blue-inner" fill-rule="evenodd" clip-rule="evenodd" d="M662.6 984.2C666.2 985.4 665.4 987.6 668.9 990.7C669.5 991.3 675.2 996.1 681.8 995.9C683 995.9 684.4 995.6 685.7 996.5C687.3 997.5 688.3 999.7 688 1001.7C687.9 1002.7 687.5 1002.8 685.1 1006.7C683.8 1008.8 683.6 1009.2 683.5 1009.7C683.1 1012 684.4 1014 684.9 1014.7C686.3 1016.8 687.6 1016.9 690.6 1019.3C692.9 1021.1 694 1022 694.9 1023.3C698.1 1028.1 695 1035.4 694.1 1037.6C693.2 1039.9 691.7 1043.3 688 1045.7C686.9 1046.4 684.6 1048 681.4 1048.1C679.1 1048.2 677.4 1047.5 674 1046.1C670.3 1044.6 670.5 1044.2 668.3 1043.5C666.1 1042.8 664.7 1043 659.3 1043.1C653.9 1043.2 651.2 1043.3 650.5 1043.1C646.6 1042.1 642.1 1038.9 640.9 1034.4C640.2 1031.9 640.8 1029.5 641.5 1026.5C642 1024.3 642.7 1022.5 643.6 1020.1C645.3 1015.8 645.8 1015.7 646.1 1013.7C646.5 1011.6 646.2 1010 645.7 1006.8C645 1002.3 644.3 1002.3 644.1 999.5C644 998.4 643.9 995.1 645.5 991.4C646.2 989.7 647 987.9 648.8 986.2C651.1 984.2 653.7 983.9 655.6 983.6C657.4 983.4 660.1 983 662.6 984.2Z" stroke="#69C6DB" stroke-miterlimit="10"/>
<path id="red-outer" fill-rule="evenodd" clip-rule="evenodd" d="M913.053 203.84C951.314 237.583 967.068 275.827 998.578 354.562C1034.59 437.796 1023.34 440.044 1048.09 485.035C1072.85 530.026 1095.36 550.274 1185.38 633.508C1273.16 716.742 1318.17 759.482 1324.92 772.98C1369.94 849.465 1392.44 973.191 1338.43 1063.17C1309.17 1114.91 1261.9 1141.91 1203.39 1180.15C1160.62 1207.14 1120.11 1225.14 1068.35 1247.64C971.569 1290.38 962.567 1283.63 926.556 1308.38C886.045 1335.37 865.789 1366.86 823.027 1425.35C762.259 1508.59 773.512 1519.83 730.749 1567.08C714.995 1585.07 663.229 1639.06 579.955 1675.05C541.694 1690.8 501.182 1708.8 444.916 1704.3C375.145 1699.8 330.133 1663.81 294.123 1636.81C260.363 1612.07 213.098 1576.07 190.592 1515.33C161.333 1438.85 208.597 1416.35 201.845 1312.87C199.594 1292.63 188.341 1126.16 78.059 1024.93C57.8031 1006.93 33.0461 988.937 26.2942 952.945C17.2916 912.452 35.2968 860.711 71.3073 833.717C89.3125 820.219 96.064 824.721 197.343 802.225C253.61 788.728 260.362 786.478 269.365 779.729C312.127 750.485 323.38 696.496 325.631 678.499C336.884 624.51 318.879 599.763 307.626 516.529C298.624 451.292 296.373 419.8 303.125 386.056C330.132 257.831 494.431 190.342 543.945 170.096C595.71 149.85 672.232 118.356 769.011 136.353C796.018 140.852 859.037 154.349 913.053 203.84Z" stroke="#E62644" stroke-miterlimit="10"/>
<path id="red-inner" fill-rule="evenodd" clip-rule="evenodd" d="M700.6 833.2C702.3 834.7 703 836.4 704.4 839.9C706 843.6 705.5 843.7 706.6 845.7C707.7 847.7 708.7 848.6 712.7 852.3C716.6 856 718.6 857.9 718.9 858.5C720.9 861.9 721.9 867.4 719.5 871.4C718.2 873.7 716.1 874.9 713.5 876.6C711.6 877.8 709.8 878.6 707.5 879.6C703.2 881.5 702.8 881.2 701.2 882.3C699.4 883.5 698.5 884.9 696.6 887.5C693.9 891.2 694.4 891.7 692.5 893.8C691.8 894.6 689.5 897 685.8 898.6C684.1 899.3 682.3 900.1 679.8 899.9C676.7 899.7 674.7 898.1 673.1 896.9C671.6 895.8 669.5 894.2 668.5 891.5C667.2 888.1 669.3 887.1 669 882.5C668.9 881.6 668.4 874.2 663.5 869.7C662.6 868.9 661.5 868.1 661.2 866.5C660.8 864.7 661.6 862.4 663.2 861.2C664 860.6 664.3 860.8 668.8 859.8C671.3 859.2 671.6 859.1 672 858.8C673.9 857.5 674.4 855.1 674.5 854.3C675 851.9 674.2 850.8 673.7 847.1C673.3 844.2 673.2 842.8 673.5 841.3C674.7 835.6 682 832.6 684.2 831.7C686.5 830.8 689.9 829.4 694.2 830.2C695.4 830.4 698.2 831 700.6 833.2Z" stroke="#E62644" stroke-miterlimit="10"/>
</svg>
