<svg width="1418" height="1985" viewBox="0 0 1418 1985" fill="none" xmlns="http://www.w3.org/2000/svg">
<rect width="1418" height="1985" fill="#DADADA"/>
<g id="il-laminatore">
<rect width="1417.32" height="1984.25" fill="black"/>
<path id="sx" d="M186.17 1116.54C216.07 1337.98 400.75 1574.69 644.36 1574.71C947.5 1574.71 1155.57 1208.28 1102.56 1116.54C1071.97 1063.61 934.43 1067.46 862.21 1069.54C783.27 1071.75 762.21 1085.91 697.96 1088.86C681.64 1089.61 534.8 1094.64 408.1 1016.4C279.48 936.92 179 776.21 186.17 600.89C195.84 365.09 398.74 141.57 644.36 142.72C966.36 144.22 1150.78 530.84 1102.56 600.89C1084.48 627.16 1025.12 621.38 963.66 615.39C876.9 606.95 835.81 578.62 760.76 557.39C666.61 530.8 578.44 532.25 538.54 538.06C354.74 564.9 148.44 837.17 186.17 1116.54Z" stroke="white" stroke-width="2" stroke-miterlimit="10"/>
<path id="dx" d="M1245.86 1117.54C1216 1339 1031.28 1575.69 787.67 1575.71C484.53 1575.71 276.46 1209.28 329.47 1117.54C360.06 1064.61 497.6 1068.46 569.82 1070.54C648.76 1072.75 669.82 1086.91 734.07 1089.86C750.39 1090.61 897.23 1095.64 1023.93 1017.4C1152.55 937.97 1253.06 777.26 1245.86 601.94C1236.19 366.14 1033.29 142.62 787.67 143.77C465.67 145.27 281.25 531.89 329.47 601.94C347.55 628.21 406.91 622.43 468.37 616.44C555.13 608 596.22 579.67 671.27 558.44C765.42 531.85 853.59 533.3 893.49 539.11C1077.29 565.9 1283.59 838.17 1245.86 1117.54Z" stroke="#EA5B0C" stroke-width="2" stroke-miterlimit="10"/>
</g>
</svg>
