<svg width="1420" height="1985" viewBox="0 0 1420 1985" fill="none" xmlns="http://www.w3.org/2000/svg">
<rect width="1420" height="1985" fill="#DADADA"/>
<g id="il-risveglio">
<rect width="1419.92" height="1984.25" fill="#D2D8D3"/>
<path id="bot-sx" d="M179.82 1135.84C174.14 1030.66 261.1 971.2 357.89 1014.2C398.49 1032.22 438.15 1052.76 479.74 1068.07C546.37 1092.61 607.7 1067.64 628.87 1000.31C641.79 959.2 638.6 912.54 639.7 868.31C641.58 793.46 670.13 754.14 739.08 736.46C788.65 723.75 853.45 752.18 878.08 797.46C906.08 849.03 891.47 916.61 839.08 959.61C812.3 981.54 781.25 998.46 751.5 1016.61C701.57 1047.06 682.87 1093.82 695.15 1150.33C710.41 1220.51 763.56 1252.73 819.08 1286.33C845.88 1302.57 872.69 1326.7 887.08 1353.86C909.39 1395.99 893.24 1439.08 861.24 1471.54C822.03 1511.37 771.73 1508.86 723.03 1493.54C654.7 1472.04 640.01 1440.92 640.08 1331.65C651.79 1185.23 574.15 1173.67 491.39 1183.55C465.43 1186.63 440.98 1201.82 415.61 1210.82C384.38 1221.9 353.64 1236.64 321.38 1242.11C249.18 1254.34 183.44 1202.94 179.82 1135.84Z" stroke="#27348B" stroke-width="3" stroke-miterlimit="10"/>
<path id="bot-dx" d="M362 1135.84C356.32 1030.66 443.28 971.2 540.07 1014.2C580.67 1032.22 620.33 1052.76 661.92 1068.07C728.55 1092.61 789.88 1067.64 811.05 1000.31C823.97 959.2 820.77 912.54 821.88 868.31C823.76 793.46 852.26 754.14 921.26 736.46C970.84 723.75 1035.64 752.18 1060.26 797.46C1088.31 849.03 1073.7 916.61 1021.31 959.61C994.53 981.54 963.48 998.46 933.73 1016.61C883.8 1047.06 865.1 1093.82 877.38 1150.33C892.64 1220.51 945.79 1252.73 1001.3 1286.33C1028.1 1302.57 1054.92 1326.7 1069.3 1353.86C1091.62 1395.99 1075.47 1439.08 1043.47 1471.54C1004.25 1511.37 953.95 1508.86 905.25 1493.54C836.87 1472.04 822.18 1440.92 822.25 1331.65C833.99 1185.23 756.35 1173.67 673.57 1183.55C647.6 1186.63 623.15 1201.82 597.78 1210.82C566.56 1221.9 535.81 1236.64 503.56 1242.11C431.35 1254.34 365.62 1202.94 362 1135.84Z" stroke="#27348B" stroke-width="3" stroke-miterlimit="10"/>
<path id="top-dx" d="M1096.2 708.91C1063.95 703.44 1033.2 688.7 1001.98 677.62C976.61 668.62 952.16 653.43 926.19 650.35C843.33 640.48 765.69 652 777.43 798.46C777.5 907.73 762.81 938.85 694.43 960.35C645.73 975.67 595.43 978.18 556.21 938.35C524.21 905.89 508.06 862.81 530.38 820.67C544.76 793.51 571.58 769.38 598.38 753.14C653.89 719.54 707.04 687.32 722.3 617.14C734.58 560.63 715.88 513.87 665.95 483.42C636.2 465.27 605.15 448.35 578.37 426.42C525.98 383.42 511.37 315.84 539.37 264.27C563.99 218.99 628.79 190.56 678.37 203.27C747.37 220.95 775.87 260.27 777.75 335.12C778.86 379.35 775.66 426.01 788.58 467.12C809.75 534.45 871.08 559.42 937.71 534.88C979.43 519.51 1019.08 499 1059.69 481C1156.48 438 1243.44 497.46 1237.76 602.64C1234.14 669.74 1168.41 721.14 1096.2 708.91Z" stroke="#27348B" stroke-width="3" stroke-miterlimit="10"/>
<path id="top-sx" d="M914 708.91C881.75 703.44 851 688.7 819.78 677.62C794.41 668.62 769.96 653.43 743.99 650.35C661.14 640.48 583.49 652 595.23 798.46C595.3 907.73 580.61 938.85 512.28 960.35C463.58 975.67 413.28 978.18 374.07 938.35C342.07 905.89 325.91 862.81 348.23 820.67C362.61 793.51 389.43 769.38 416.23 753.14C471.74 719.54 524.9 687.32 540.15 617.14C552.43 560.63 533.74 513.87 483.81 483.42C454.05 465.27 423.01 448.35 396.23 426.42C343.84 383.42 329.23 315.84 357.23 264.27C381.86 218.99 446.65 190.56 496.23 203.27C565.18 220.95 593.74 260.27 595.61 335.12C596.72 379.35 593.52 426.01 606.44 467.12C627.61 534.45 688.94 559.42 755.57 534.88C797.23 519.51 836.9 499 877.5 481C974.29 438 1061.24 497.46 1055.56 602.64C1051.94 669.74 986.21 721.14 914 708.91Z" stroke="#27348B" stroke-width="3" stroke-miterlimit="10"/>
</g>
</svg>
