<svg width="1420" height="1985" viewBox="0 0 1420 1985" fill="none" xmlns="http://www.w3.org/2000/svg">
<rect width="1420" height="1985" fill="#DADADA"/>
<g id="il-risveglio">
<rect width="1419.92" height="1984.25" fill="#D2D8D3"/>
<path id="bot" d="M179.82 1135.84C174.14 1030.66 261.1 971.2 357.89 1014.2C398.49 1032.22 438.15 1052.76 479.74 1068.07C546.37 1092.61 607.7 1067.64 628.87 1000.31C641.79 959.2 638.6 912.54 639.7 868.31C641.58 793.46 670.13 754.14 739.08 736.46C788.65 723.75 853.45 752.18 878.08 797.46C906.08 849.03 891.47 916.61 839.08 959.61C812.3 981.54 781.25 998.46 751.5 1016.61C701.57 1047.06 682.87 1093.82 695.15 1150.33C710.41 1220.51 763.56 1252.73 819.08 1286.33C845.88 1302.57 872.69 1326.7 887.08 1353.86C909.39 1395.99 893.24 1439.08 861.24 1471.54C822.03 1511.37 771.73 1508.86 723.03 1493.54C654.7 1472.04 640.01 1440.92 640.08 1331.65C651.79 1185.23 574.15 1173.67 491.39 1183.55C465.43 1186.63 440.98 1201.82 415.61 1210.82C384.38 1221.9 353.64 1236.64 321.38 1242.11C249.18 1254.34 183.44 1202.94 179.82 1135.84Z" stroke="#27348B" stroke-width="3" stroke-miterlimit="10"/>
<circle id="bot-center" cx="617.08" cy="1119" r="7" fill="#27348B"/>
<path id="top" d="M914 708.91C881.75 703.44 851 688.7 819.78 677.62C794.41 668.62 769.96 653.43 743.99 650.35C661.14 640.48 583.49 652 595.23 798.46C595.3 907.73 580.61 938.85 512.28 960.35C463.58 975.67 413.28 978.18 374.07 938.35C342.07 905.89 325.91 862.81 348.23 820.67C362.61 793.51 389.43 769.38 416.23 753.14C471.74 719.54 524.9 687.32 540.15 617.14C552.43 560.63 533.74 513.87 483.81 483.42C454.05 465.27 423.01 448.35 396.23 426.42C343.84 383.42 329.23 315.84 357.23 264.27C381.86 218.99 446.65 190.56 496.23 203.27C565.18 220.95 593.74 260.27 595.61 335.12C596.72 379.35 593.52 426.01 606.44 467.12C627.61 534.45 688.94 559.42 755.57 534.88C797.23 519.51 836.9 499 877.5 481C974.29 438 1061.24 497.46 1055.56 602.64C1051.94 669.74 986.21 721.14 914 708.91Z" stroke="#27348B" stroke-width="3" stroke-miterlimit="10"/>
<circle id="top-center" cx="617.08" cy="585" r="7" fill="#27348B"/>
</g>
</svg>
