<svg width="100" height="100" viewBox="0 0 100 100" fill="none" xmlns="http://www.w3.org/2000/svg">
<rect width="100" height="100" fill="black"/>
<path d="M90 34.0218V81.9927C90 86.4331 86.4364 90 82 90C77.5636 90 74 86.4331 74 81.9927V34.0218C74 29.5814 70.4364 26.0145 66 26.0145C61.5636 26.0145 58 29.5814 58 34.0218V50.0363C58 54.4767 54.4364 58.0436 50 58.0436C45.5636 58.0436 42 54.4767 42 50.0363V34.0218C42 29.5814 38.4364 26.0145 34 26.0145C29.5636 26.0145 26 29.5814 26 34.0218V81.9927C26 86.4331 22.4364 90 18 90C13.5636 90 10 86.4331 10 81.9927V34.0218C10 29.5814 13.5636 26.0145 18 26.0145C22.4364 26.0145 26 22.4477 26 18.0073C26 13.5669 29.5636 10 34 10C38.4364 10 42 13.5669 42 18.0073C42 22.4477 45.5636 26.0145 50 26.0145C54.4364 26.0145 58 22.4477 58 18.0073C58 13.5669 61.5636 10 66 10C70.4364 10 74 13.5669 74 18.0073C74 22.4477 77.5636 26.0145 82 26.0145C86.4364 26.0145 90 29.6542 90 34.0218Z" fill="white"/>
</svg>
