<svg width="646" height="313" viewBox="0 0 646 313" fill="none" xmlns="http://www.w3.org/2000/svg">
<path d="M95 27.4V82C95 87 90.8 91.1001 85.5 91.1001C80.2 91.1001 76 87 76 82V27.4C76 22.4 71.8 18.3 66.5 18.3C61.3 18.3 57 22.4 57 27.4V45.6001C57 50.6001 52.8 54.7001 47.5 54.7001C42.3 54.7001 38 50.6001 38 45.6001V27.4C38 22.4 33.8 18.3 28.5 18.3C23.3 18.3 19 22.4 19 27.4V82C19 87 14.8 91.1001 9.5 91.1001C4.3 91.1001 0 87 0 82V27.4C0 22.4 4.2 18.3 9.5 18.3C14.7 18.3 19 14.2001 19 9.20007C19 4.20007 23.2 0.100098 28.5 0.100098C33.7 0.100098 38 4.20007 38 9.20007C38 14.2001 42.2 18.3 47.5 18.3C52.7 18.3 57 14.2001 57 9.20007C57 4.20007 61.2 0.100098 66.5 0.100098C71.7 0.100098 76 4.20007 76 9.20007C76 14.2001 80.2 18.3 85.5 18.3C90.8 18.3 95 22.4 95 27.4Z" fill="white"/>
<path d="M199.3 81.9C199.3 86.9 195.1 91 189.8 91H133C127.8 91 123.5 86.9 123.5 81.9C123.5 76.9 119.2 72.8 114 72.8C108.8 72.8 104.5 68.7001 104.5 63.7001V27.3C104.5 22.3 108.7 18.2001 114 18.2001C119.2 18.2001 123.5 14.1001 123.5 9.1001C123.5 4.1001 127.7 0 133 0H189.8C195 0 199.3 4.1001 199.3 9.1001C199.3 14.1001 195.1 18.2001 189.8 18.2001H133C127.8 18.2001 123.5 22.3 123.5 27.3C123.5 32.3 127.7 36.4 133 36.4H170.9C176.1 36.4 180.4 40.5 180.4 45.5C180.4 50.5 176.2 54.6001 170.9 54.6001H133C127.8 54.6001 123.5 58.7001 123.5 63.7001C123.5 68.7001 127.7 72.8 133 72.8H189.8C195 72.8 199.3 76.9 199.3 81.9Z" fill="white"/>
<path d="M303.5 9.20007C303.5 14.2001 299.3 18.3 294 18.3H275C269.8 18.3 265.5 22.4 265.5 27.4V82C265.5 87 261.3 91.1001 256 91.1001C250.8 91.1001 246.5 87 246.5 82V27.4C246.5 22.4 242.3 18.3 237 18.3H218C212.8 18.3 208.5 14.2001 208.5 9.20007C208.5 4.20007 212.7 0.100098 218 0.100098H293.8C299.2 0.100098 303.5 4.20007 303.5 9.20007Z" fill="white"/>
<path d="M374.5 54.7001H317.7V27.4C317.7 22.4 321.9 18.3 327.2 18.3H365.1C370.3 18.3 374.6 22.4 374.6 27.4V54.7001H374.5ZM384 18.3C378.8 18.3 374.5 14.2001 374.5 9.20007C374.5 4.20007 370.3 0.100098 365 0.100098H327.1C321.9 0.100098 317.6 4.20007 317.6 9.20007C317.6 14.2001 313.4 18.3 308.1 18.3C302.9 18.3 298.6 22.4 298.6 27.4V82C298.6 87 302.8 91.1001 308.1 91.1001C313.3 91.1001 317.6 87 317.6 82V72.9H374.4V82C374.4 87 378.7 91.1001 383.9 91.1001C389.1 91.1001 393.4 87 393.4 82V27.4C393.4 22.4 389.2 18.3 384 18.3Z" fill="white"/>
<path d="M95 138.9V193.5C95 198.5 90.8 202.6 85.5 202.6C80.2 202.6 76 198.5 76 193.5V138.9C76 133.9 71.8 129.8 66.5 129.8C61.3 129.8 57 133.9 57 138.9V157.1C57 162.1 52.8 166.2 47.5 166.2C42.3 166.2 38 162.1 38 157.1V138.9C38 133.9 33.8 129.8 28.5 129.8C23.3 129.8 19 133.9 19 138.9V193.5C19 198.5 14.8 202.6 9.5 202.6C4.3 202.6 0 198.5 0 193.5V138.9C0 133.9 4.2 129.8 9.5 129.8C14.7 129.8 19 125.7 19 120.7C19 115.7 23.2 111.6 28.5 111.6C33.7 111.6 38 115.7 38 120.7C38 125.7 42.2 129.8 47.5 129.8C52.7 129.8 57 125.7 57 120.7C57 115.7 61.2 111.6 66.5 111.6C71.7 111.6 76 115.7 76 120.7C76 125.7 80.2 129.8 85.5 129.8C90.8 129.8 95 133.8 95 138.9Z" fill="white"/>
<path d="M181.9 175.2C181.9 180.2 177.6 184.3 172.4 184.3H134.5C129.3 184.3 125 180.2 125 175.2V138.8C125 133.8 129.3 129.7 134.5 129.7H172.4C177.6 129.7 181.9 133.8 181.9 138.8V175.2ZM191.4 129.8C186.2 129.8 181.9 125.7 181.9 120.7C181.9 115.7 177.6 111.6 172.4 111.6H134.5C129.3 111.6 125 115.7 125 120.7C125 125.7 120.8 129.8 115.5 129.8C110.2 129.8 106 133.9 106 138.9V175.3C106 180.3 110.2 184.4 115.5 184.4C120.8 184.4 125 188.5 125 193.5C125 198.5 129.3 202.6 134.5 202.6H172.4C177.6 202.6 181.9 198.5 181.9 193.5C181.9 188.5 186.1 184.4 191.4 184.4C196.7 184.4 200.9 180.3 200.9 175.3V138.9C200.9 133.8 196.6 129.8 191.4 129.8Z" fill="white"/>
<path d="M230.9 147.9V138.8C230.9 133.8 235.2 129.7 240.4 129.7H278.3C283.5 129.7 287.8 133.8 287.8 138.8C287.8 143.8 283.5 147.9 278.3 147.9H230.9ZM297.2 184.3H278.2C273 184.3 268.7 180.2 268.7 175.2C268.7 170.2 264.5 166.1 259.2 166.1H278.1C283.3 166.1 287.6 162 287.6 157C287.6 152 291.8 147.9 297.1 147.9C302.3 147.9 306.6 143.8 306.6 138.8C306.6 133.8 302.4 129.7 297.1 129.7C291.9 129.7 287.6 125.6 287.6 120.6C287.6 115.6 283.3 111.5 278.1 111.5H240.2C235 111.5 230.7 115.6 230.7 120.6C230.7 125.6 226.5 129.7 221.2 129.7C216 129.7 211.7 133.8 211.7 138.8V193.4C211.7 198.4 215.9 202.5 221.2 202.5C226.4 202.5 230.7 198.4 230.7 193.4V175.2C230.7 170.2 235 166.1 240.2 166.1C245.4 166.1 249.7 170.2 249.7 175.2C249.7 180.2 253.9 184.3 259.2 184.3C264.4 184.3 268.7 188.4 268.7 193.4C268.7 198.4 272.9 202.5 278.2 202.5H297.2C302.4 202.5 306.7 198.4 306.7 193.4C306.7 188.4 302.5 184.3 297.2 184.3Z" fill="white"/>
<path d="M412.5 120.7C412.5 125.7 408.3 129.8 403 129.8H346.2C341 129.8 336.7 133.9 336.7 138.9V148H365.1C370.3 148 374.6 152.1 374.6 157.1C374.6 162.1 370.4 166.2 365.1 166.2H336.7V193.5C336.7 198.5 332.5 202.6 327.2 202.6C322 202.6 317.7 198.5 317.7 193.5V138.9C317.7 133.9 321.9 129.8 327.2 129.8C332.4 129.8 336.7 125.7 336.7 120.7C336.7 115.7 340.9 111.6 346.2 111.6H403C408.3 111.6 412.5 115.6 412.5 120.7Z" fill="white"/>
<path d="M488.3 175.2C488.3 180.2 484 184.3 478.8 184.3H440.9C435.7 184.3 431.4 180.2 431.4 175.2V138.8C431.4 133.8 435.7 129.7 440.9 129.7H478.8C484 129.7 488.3 133.8 488.3 138.8V175.2ZM497.8 129.8C492.6 129.8 488.3 125.7 488.3 120.7C488.3 115.7 484 111.6 478.8 111.6H440.9C435.7 111.6 431.4 115.7 431.4 120.7C431.4 125.7 427.2 129.8 421.9 129.8C416.6 129.8 412.4 133.9 412.4 138.9V175.3C412.4 180.3 416.6 184.4 421.9 184.4C427.2 184.4 431.4 188.5 431.4 193.5C431.4 198.5 435.7 202.6 440.9 202.6H478.8C484 202.6 488.3 198.5 488.3 193.5C488.3 188.5 492.5 184.4 497.8 184.4C503.1 184.4 507.3 180.3 507.3 175.3V138.9C507.3 133.8 503 129.8 497.8 129.8Z" fill="white"/>
<path d="M614.1 157V175.2C614.1 180.2 609.8 184.3 604.6 184.3C599.4 184.3 595.1 188.4 595.1 193.4C595.1 198.4 590.9 202.5 585.6 202.5H528.8C523.6 202.5 519.3 198.4 519.3 193.4C519.3 188.4 523.5 184.3 528.8 184.3H585.6C590.8 184.3 595.1 180.2 595.1 175.2C595.1 170.2 590.9 166.1 585.6 166.1H528.8C523.6 166.1 519.3 162 519.3 157V138.8C519.3 133.8 523.5 129.7 528.8 129.7C534 129.7 538.3 125.6 538.3 120.6C538.3 115.6 542.5 111.5 547.8 111.5H604.6C609.8 111.5 614.1 115.6 614.1 120.6C614.1 125.6 609.8 129.7 604.6 129.7H547.8C542.6 129.7 538.3 133.8 538.3 138.8C538.3 143.8 542.5 147.9 547.8 147.9H604.6C609.9 147.9 614.1 152 614.1 157Z" fill="white"/>
<path d="M645.2 120.7V193.4C645.2 198.4 640.9 202.5 635.7 202.5C630.5 202.5 626.2 198.4 626.2 193.4V120.7C626.2 115.7 630.4 111.6 635.7 111.6C640.9 111.6 645.2 115.7 645.2 120.7Z" fill="white"/>
<path d="M412.5 120.7C412.5 125.7 408.3 129.8 403 129.8H346.2C341 129.8 336.7 133.9 336.7 138.9V148H365.1C370.3 148 374.6 152.1 374.6 157.1C374.6 162.1 370.4 166.2 365.1 166.2H336.7V193.5C336.7 198.5 332.5 202.6 327.2 202.6C322 202.6 317.7 198.5 317.7 193.5V138.9C317.7 133.9 321.9 129.8 327.2 129.8C332.4 129.8 336.7 125.7 336.7 120.7C336.7 115.7 340.9 111.6 346.2 111.6H403C408.3 111.6 412.5 115.6 412.5 120.7Z" fill="white"/>
<path d="M488.3 175.2C488.3 180.2 484 184.3 478.8 184.3H440.9C435.7 184.3 431.4 180.2 431.4 175.2V138.8C431.4 133.8 435.7 129.7 440.9 129.7H478.8C484 129.7 488.3 133.8 488.3 138.8V175.2ZM497.8 129.8C492.6 129.8 488.3 125.7 488.3 120.7C488.3 115.7 484 111.6 478.8 111.6H440.9C435.7 111.6 431.4 115.7 431.4 120.7C431.4 125.7 427.2 129.8 421.9 129.8C416.6 129.8 412.4 133.9 412.4 138.9V175.3C412.4 180.3 416.6 184.4 421.9 184.4C427.2 184.4 431.4 188.5 431.4 193.5C431.4 198.5 435.7 202.6 440.9 202.6H478.8C484 202.6 488.3 198.5 488.3 193.5C488.3 188.5 492.5 184.4 497.8 184.4C503.1 184.4 507.3 180.3 507.3 175.3V138.9C507.3 133.8 503 129.8 497.8 129.8Z" fill="white"/>
<path d="M614.1 157V175.2C614.1 180.2 609.8 184.3 604.6 184.3C599.4 184.3 595.1 188.4 595.1 193.4C595.1 198.4 590.9 202.5 585.6 202.5H528.8C523.6 202.5 519.3 198.4 519.3 193.4C519.3 188.4 523.5 184.3 528.8 184.3H585.6C590.8 184.3 595.1 180.2 595.1 175.2C595.1 170.2 590.9 166.1 585.6 166.1H528.8C523.6 166.1 519.3 162 519.3 157V138.8C519.3 133.8 523.5 129.7 528.8 129.7C534 129.7 538.3 125.6 538.3 120.6C538.3 115.6 542.5 111.5 547.8 111.5H604.6C609.8 111.5 614.1 115.6 614.1 120.6C614.1 125.6 609.8 129.7 604.6 129.7H547.8C542.6 129.7 538.3 133.8 538.3 138.8C538.3 143.8 542.5 147.9 547.8 147.9H604.6C609.9 147.9 614.1 152 614.1 157Z" fill="white"/>
<path d="M645.2 120.7V193.4C645.2 198.4 640.9 202.5 635.7 202.5C630.5 202.5 626.2 198.4 626.2 193.4V120.7C626.2 115.7 630.4 111.6 635.7 111.6C640.9 111.6 645.2 115.7 645.2 120.7Z" fill="white"/>
<path d="M95.8999 266.7V285.2C95.8999 290.3 91.5998 294.4 86.2998 294.4C80.9998 294.4 76.6997 298.5 76.6997 303.6C76.6997 308.7 72.3999 312.8 67.0999 312.8H9.7998C4.4998 312.8 0.199707 308.7 0.199707 303.6C0.199707 298.5 4.4998 294.4 9.7998 294.4H67.0999C72.3999 294.4 76.6997 290.3 76.6997 285.2C76.6997 280.1 72.3999 276 67.0999 276H9.7998C4.4998 276 0.199707 271.9 0.199707 266.8V248.3C0.199707 243.2 4.4998 239.1 9.7998 239.1C15.0998 239.1 19.3999 235 19.3999 229.9C19.3999 224.8 23.6998 220.7 28.9998 220.7H86.2998C91.5998 220.7 95.8999 224.8 95.8999 229.9C95.8999 235 91.5998 239.1 86.2998 239.1H28.9998C23.6998 239.1 19.3999 243.2 19.3999 248.3C19.3999 253.4 23.6998 257.5 28.9998 257.5H86.2998C91.5998 257.4 95.8999 261.6 95.8999 266.7Z" fill="white"/>
<path d="M186.6 285.1C186.6 290.2 182.3 294.3 177 294.3H138.8C133.5 294.3 129.2 290.2 129.2 285.1V248.1C129.2 243 133.5 238.9 138.8 238.9H177C182.3 238.9 186.6 243 186.6 248.1V285.1ZM196.1 239C190.8 239 186.5 234.9 186.5 229.8C186.5 224.7 182.2 220.6 176.9 220.6H138.7C133.4 220.6 129.1 224.7 129.1 229.8C129.1 234.9 124.8 239 119.5 239C114.2 239 109.9 243.1 109.9 248.2V285.2C109.9 290.3 114.2 294.4 119.5 294.4C124.8 294.4 129.1 298.5 129.1 303.6C129.1 308.7 133.4 312.8 138.7 312.8H176.9C182.2 312.8 186.5 308.7 186.5 303.6C186.5 298.5 190.8 294.4 196.1 294.4C201.4 294.4 205.7 290.3 205.7 285.2V248.2C205.7 243.1 201.4 239 196.1 239Z" fill="white"/>
<path d="M315.5 248.2V303.6C315.5 308.7 311.2 312.8 305.9 312.8C300.6 312.8 296.3 308.7 296.3 303.6V248.2C296.3 243.1 292 239 286.7 239H248.5C243.2 239 238.9 243.1 238.9 248.2V303.6C238.9 308.7 234.6 312.8 229.3 312.8C224 312.8 219.7 308.7 219.7 303.6V248.2C219.7 243.1 224 239 229.3 239C234.6 239 238.9 234.9 238.9 229.8C238.9 224.7 243.2 220.6 248.5 220.6H286.7C292 220.6 296.3 224.7 296.3 229.8C296.3 234.9 300.6 239 305.9 239C311.3 239 315.5 243.1 315.5 248.2Z" fill="white"/>
<path d="M406.4 285.1C406.4 290.2 402.1 294.3 396.8 294.3H358.6C353.3 294.3 349 290.2 349 285.1V248.1C349 243 353.3 238.9 358.6 238.9H396.8C402.1 238.9 406.4 243 406.4 248.1V285.1ZM415.9 239C410.6 239 406.3 234.9 406.3 229.8C406.3 224.7 402 220.6 396.7 220.6H358.5C353.2 220.6 348.9 224.7 348.9 229.8C348.9 234.9 344.6 239 339.3 239C334 239 329.7 243.1 329.7 248.2V285.2C329.7 290.3 334 294.4 339.3 294.4C344.6 294.4 348.9 298.5 348.9 303.6C348.9 308.7 353.2 312.8 358.5 312.8H396.7C402 312.8 406.3 308.7 406.3 303.6C406.3 298.5 410.6 294.4 415.9 294.4C421.2 294.4 425.5 290.3 425.5 285.2V248.2C425.5 243.1 421.2 239 415.9 239Z" fill="white"/>
<path d="M458.9 257.4V248.2C458.9 243.1 463.2 239 468.5 239H506.7C512 239 516.3 243.1 516.3 248.2C516.3 253.3 512 257.4 506.7 257.4H458.9ZM525.8 294.4H506.7C501.4 294.4 497.1 290.3 497.1 285.2C497.1 280.1 492.8 276 487.5 276H506.6C511.9 276 516.2 271.9 516.2 266.8C516.2 261.7 520.5 257.6 525.8 257.6C531.1 257.6 535.4 253.5 535.4 248.4C535.4 243.3 531.1 239.2 525.8 239.2C520.5 239.2 516.2 235.1 516.2 230C516.2 224.9 511.9 220.8 506.6 220.8H468.4C463.1 220.8 458.8 224.9 458.8 230C458.8 235.1 454.5 239.2 449.2 239.2C443.9 239.2 439.6 243.3 439.6 248.4V303.8C439.6 308.9 443.9 313 449.2 313C454.5 313 458.8 308.9 458.8 303.8V285.3C458.8 280.2 463.1 276.1 468.4 276.1C473.7 276.1 478 280.2 478 285.3C478 290.4 482.3 294.5 487.6 294.5C492.9 294.5 497.2 298.6 497.2 303.7C497.2 308.8 501.5 312.9 506.8 312.9H525.9C531.2 312.9 535.5 308.8 535.5 303.7C535.4 298.5 531.1 294.4 525.8 294.4Z" fill="white"/>
<path d="M645.2 303.6C645.2 308.7 640.9 312.8 635.6 312.8H578.3C573 312.8 568.7 308.7 568.7 303.6C568.7 298.5 564.4 294.4 559.1 294.4C553.8 294.4 549.5 290.3 549.5 285.2V248.2C549.5 243.1 553.8 239 559.1 239C564.4 239 568.7 234.9 568.7 229.8C568.7 224.7 573 220.6 578.3 220.6H635.6C640.9 220.6 645.2 224.7 645.2 229.8C645.2 234.9 640.9 239 635.6 239H578.3C573 239 568.7 243.1 568.7 248.2C568.7 253.3 573 257.4 578.3 257.4H616.5C621.8 257.4 626.1 261.5 626.1 266.6C626.1 271.7 621.8 275.8 616.5 275.8H578.3C573 275.8 568.7 279.9 568.7 285C568.7 290.1 573 294.2 578.3 294.2H635.6C640.9 294.4 645.2 298.5 645.2 303.6Z" fill="white"/>
<path d="M434.7 68.9H436.9C438.4 68.9 439.7 68.7001 440.6 68.2001C441.5 67.7001 442.2 67.0001 442.6 66.1001C443 65.2001 443.2 64.1 443.2 62.8C443.2 61.5 443 60.4 442.6 59.5C442.2 58.6 441.5 57.9 440.6 57.4C439.7 56.9 438.5 56.7001 436.9 56.7001H434.7V68.9ZM432.7 70.5V55.1001H436.8C438.7 55.1001 440.2 55.4 441.4 56C442.6 56.6 443.5 57.5001 444.1 58.7001C444.7 59.9001 445 61.2 445 62.8C445 64.4 444.7 65.7 444.1 66.9C443.5 68 442.6 68.9 441.4 69.5C440.2 70.1 438.6 70.4 436.8 70.4H432.7V70.5Z" fill="white"/>
<path d="M451.8 69.2001C452.3 69.2001 452.8 69.1 453.2 68.9C453.6 68.7 454 68.4 454.3 68C454.6 67.6 454.9 67.2001 455 66.7001C455.2 66.2001 455.3 65.7001 455.3 65.2001V65H452.5C451.8 65 451.2 65.1 450.7 65.3C450.3 65.5 449.9 65.7 449.7 66C449.5 66.3 449.4 66.7001 449.4 67.1001C449.4 67.5001 449.5 67.9001 449.7 68.2001C449.9 68.5001 450.2 68.8 450.5 68.9C450.9 69.1 451.3 69.2001 451.8 69.2001ZM451.6 70.7001C450.7 70.7001 449.9 70.5001 449.3 70.2001C448.7 69.9001 448.2 69.4 447.9 68.9C447.6 68.3 447.4 67.8001 447.4 67.1001C447.4 66.3001 447.6 65.7001 448 65.2001C448.4 64.7001 449 64.3 449.7 64C450.4 63.7 451.3 63.6001 452.3 63.6001H455.3C455.3 62.9001 455.2 62.2001 455 61.7001C454.8 61.2001 454.5 60.8001 454.1 60.6001C453.7 60.4001 453.1 60.2001 452.5 60.2001C451.9 60.2001 451.2 60.4001 450.7 60.7001C450.2 61.0001 449.9 61.5001 449.8 62.2001H447.8C447.9 61.4001 448.2 60.8 448.6 60.3C449 59.8 449.6 59.4001 450.3 59.1001C451 58.8001 451.7 58.7001 452.5 58.7001C453.6 58.7001 454.5 58.9 455.2 59.3C455.9 59.7 456.4 60.2 456.8 60.9C457.1 61.6 457.3 62.4 457.3 63.3V70.6001H455.6L455.5 68.6001C455.3 68.9001 455.2 69.2 454.9 69.5C454.7 69.8 454.4 70.0001 454.1 70.2001C453.8 70.4001 453.4 70.6001 453 70.7001C452.5 70.7001 452 70.7001 451.6 70.7001Z" fill="white"/>
<path d="M460.4 70.5V58.9H462.1L462.2 61C462.5 60.5 462.8 60.0001 463.3 59.7001C463.7 59.3001 464.3 59.1 464.9 58.9C465.5 58.7 466.2 58.6001 467 58.6001V60.5H465.8C465.3 60.5 464.9 60.6001 464.5 60.7001C464.1 60.8001 463.7 61 463.3 61.3C463 61.6 462.7 61.9 462.5 62.4C462.3 62.9 462.2 63.4001 462.2 64.1001V70.5H460.4Z" fill="white"/>
<path d="M473.9 70.7001C472.8 70.7001 471.9 70.5 471.1 70C470.3 69.5 469.6 68.8 469.2 67.9C468.7 67 468.5 65.9001 468.5 64.7001C468.5 63.5001 468.7 62.4 469.2 61.5C469.7 60.6 470.3 59.9 471.1 59.4C471.9 58.9 472.9 58.7001 474 58.7001C475.2 58.7001 476.1 58.9 476.9 59.4C477.7 59.9 478.3 60.6 478.7 61.4C479.1 62.2 479.3 63.2001 479.3 64.1001V64.5C479.3 64.6 479.3 64.8 479.3 65H470V63.6001H477.5C477.5 62.5001 477.1 61.6 476.5 61C475.9 60.4 475 60.1001 474.1 60.1001C473.5 60.1001 472.9 60.3001 472.3 60.6001C471.8 60.9001 471.3 61.3 471 61.9C470.7 62.5 470.5 63.2001 470.5 64.1001V64.7001C470.5 65.7001 470.7 66.5001 471 67.1001C471.3 67.7001 471.8 68.2001 472.3 68.6001C472.8 68.9001 473.4 69.1001 474.1 69.1001C475 69.1001 475.6 68.9001 476.1 68.6001C476.6 68.3001 476.9 67.8001 477.2 67.2001H479.1C478.9 67.8001 478.6 68.4 478.1 68.9C477.7 69.4 477.1 69.8001 476.4 70.1001C475.6 70.6001 474.8 70.7001 473.9 70.7001Z" fill="white"/>
<path d="M488.8 70.5V57.7001C488.8 57.0001 488.9 56.4 489.2 56C489.5 55.6 489.8 55.2 490.3 55C490.8 54.8 491.4 54.7001 492.1 54.7001H493.9V56.3H492.5C491.9 56.3 491.5 56.4001 491.3 56.6001C491 56.8001 490.9 57.2 490.9 57.8V70.5H488.8ZM486.9 58.9H493.9V60.5H486.9V58.9Z" fill="white"/>
<path d="M501 69.2001C501.7 69.2001 502.3 69.0001 502.9 68.7001C503.5 68.4001 503.9 67.9001 504.2 67.2001C504.5 66.5001 504.7 65.7001 504.7 64.7001C504.7 63.7001 504.5 62.9001 504.2 62.2001C503.9 61.5001 503.4 61.0001 502.9 60.7001C502.3 60.4001 501.7 60.2001 501 60.2001C500.3 60.2001 499.7 60.4001 499.1 60.7001C498.5 61.0001 498.1 61.5001 497.7 62.2001C497.4 62.9001 497.2 63.7001 497.2 64.7001C497.2 65.7001 497.4 66.5001 497.7 67.2001C498 67.9001 498.5 68.4001 499 68.7001C499.7 69.0001 500.4 69.2001 501 69.2001ZM501 70.7001C499.9 70.7001 498.9 70.5 498 70C497.1 69.5 496.5 68.8 496 67.9C495.5 67 495.3 65.9001 495.3 64.7001C495.3 63.5001 495.5 62.4 496 61.5C496.5 60.6 497.2 59.9 498 59.4C498.9 58.9 499.9 58.7001 501 58.7001C502.1 58.7001 503.1 58.9 504 59.4C504.8 59.9 505.5 60.6 506 61.5C506.5 62.4 506.7 63.5001 506.7 64.7001C506.7 65.9001 506.5 67 506 67.9C505.5 68.8 504.9 69.5 504 70C503.2 70.5 502.2 70.7001 501 70.7001Z" fill="white"/>
<path d="M509.5 70.5V58.9H511.2L511.3 61C511.6 60.5 511.9 60.0001 512.4 59.7001C512.8 59.3001 513.4 59.1 514 58.9C514.6 58.7 515.3 58.6001 516.1 58.6001V60.5H514.9C514.4 60.5 514 60.6001 513.6 60.7001C513.2 60.8001 512.8 61 512.4 61.3C512.1 61.6 511.8 61.9 511.6 62.4C511.4 62.9 511.3 63.4001 511.3 64.1001V70.5H509.5Z" fill="white"/>
<path d="M518.5 70.5V58.9H520.2L520.3 60.5C520.7 59.9 521.2 59.5001 521.8 59.1001C522.4 58.8001 523.1 58.6001 523.8 58.6001C524.4 58.6001 524.9 58.7 525.4 58.8C525.9 59 526.3 59.2 526.6 59.5C527 59.8 527.2 60.2001 527.4 60.7001C527.8 60.0001 528.3 59.5001 529 59.1001C529.7 58.7001 530.4 58.6001 531.1 58.6001C532 58.6001 532.7 58.8001 533.4 59.1001C534.1 59.4001 534.5 59.9001 534.9 60.6001C535.2 61.3001 535.4 62.1001 535.4 63.1001V70.4H533.5V63.3C533.5 62.3 533.3 61.5 532.8 61C532.3 60.5 531.7 60.2001 530.9 60.2001C530.3 60.2001 529.8 60.3001 529.4 60.6001C528.9 60.9001 528.6 61.3 528.3 61.8C528 62.3 527.9 63 527.9 63.8V70.4H526V63.3C526 62.3 525.8 61.5 525.3 61C524.8 60.5 524.2 60.2001 523.4 60.2001C522.9 60.2001 522.4 60.3001 521.9 60.6001C521.5 60.9001 521.1 61.3 520.8 61.8C520.5 62.3 520.4 63 520.4 63.8V70.4H518.5V70.5Z" fill="white"/>
<path d="M542.6 69.2001C543.1 69.2001 543.6 69.1 544 68.9C544.4 68.7 544.8 68.4 545.1 68C545.4 67.6 545.7 67.2001 545.8 66.7001C546 66.2001 546.1 65.7001 546.1 65.2001V65H543.3C542.6 65 542 65.1 541.5 65.3C541 65.5 540.7 65.7 540.5 66C540.3 66.3 540.2 66.7001 540.2 67.1001C540.2 67.5001 540.3 67.9001 540.5 68.2001C540.7 68.5001 541 68.8 541.3 68.9C541.7 69.1 542.1 69.2001 542.6 69.2001ZM542.4 70.7001C541.5 70.7001 540.7 70.5001 540.1 70.2001C539.5 69.9001 539 69.4 538.7 68.9C538.4 68.3 538.2 67.8001 538.2 67.1001C538.2 66.3001 538.4 65.7001 538.8 65.2001C539.2 64.7001 539.8 64.3 540.5 64C541.2 63.7 542.1 63.6001 543.1 63.6001H546.1C546.1 62.9001 546 62.2001 545.8 61.7001C545.6 61.2001 545.3 60.8001 544.9 60.6001C544.5 60.4001 543.9 60.2001 543.3 60.2001C542.7 60.2001 542 60.4001 541.5 60.7001C541 61.0001 540.7 61.5001 540.6 62.2001H538.6C538.7 61.4001 539 60.8 539.4 60.3C539.8 59.8 540.4 59.4001 541.1 59.1001C541.8 58.8001 542.5 58.7001 543.3 58.7001C544.4 58.7001 545.3 58.9 546 59.3C546.7 59.7 547.2 60.2 547.6 60.9C547.9 61.6 548.1 62.4 548.1 63.3V70.6001H546.4L546.3 68.6001C546.1 68.9001 546 69.2 545.7 69.5C545.5 69.8 545.2 70.0001 544.9 70.2001C544.6 70.4001 544.2 70.6001 543.8 70.7001C543.3 70.7001 542.9 70.7001 542.4 70.7001Z" fill="white"/>
<path d="M561.4 69.2001C561.9 69.2001 562.4 69.1 562.8 68.9C563.2 68.7 563.6 68.4 563.9 68C564.2 67.6 564.5 67.2001 564.6 66.7001C564.8 66.2001 564.9 65.7001 564.9 65.2001V65H562.1C561.4 65 560.8 65.1 560.3 65.3C559.9 65.5 559.5 65.7 559.3 66C559.1 66.3 559 66.7001 559 67.1001C559 67.5001 559.1 67.9001 559.3 68.2001C559.5 68.5001 559.8 68.8 560.1 68.9C560.4 69 560.9 69.2001 561.4 69.2001ZM561.1 70.7001C560.2 70.7001 559.4 70.5001 558.8 70.2001C558.2 69.9001 557.7 69.4 557.4 68.9C557.1 68.4 556.9 67.8001 556.9 67.1001C556.9 66.3001 557.1 65.7001 557.5 65.2001C557.9 64.7001 558.5 64.3 559.2 64C559.9 63.7 560.8 63.6001 561.8 63.6001H564.8C564.8 62.9001 564.7 62.2001 564.5 61.7001C564.3 61.2001 564 60.8001 563.6 60.6001C563.2 60.4001 562.6 60.2001 562 60.2001C561.4 60.2001 560.7 60.4001 560.2 60.7001C559.7 61.0001 559.4 61.5001 559.3 62.2001H557.3C557.4 61.4001 557.7 60.8 558.1 60.3C558.5 59.8 559.1 59.4001 559.8 59.1001C560.5 58.8001 561.2 58.7001 562 58.7001C563.1 58.7001 564 58.9 564.7 59.3C565.4 59.7 565.9 60.2 566.3 60.9C566.7 61.6 566.8 62.4 566.8 63.3V70.6001H565.1L565 68.6001C564.8 68.9001 564.7 69.2 564.4 69.5C564.2 69.8 563.9 70.0001 563.6 70.2001C563.3 70.4001 562.9 70.6001 562.5 70.7001C562.1 70.7001 561.6 70.7001 561.1 70.7001Z" fill="white"/>
<path d="M571.9 54.7H570V70.4999H571.9V54.7Z" fill="white"/>
<path d="M585.7 70.7001C584.6 70.7001 583.7 70.5001 583 70.2001C582.3 69.9001 581.8 69.4 581.4 68.9C581 68.3 580.8 67.7 580.7 66.9H582.7C582.8 67.3 582.9 67.7 583.1 68C583.3 68.3 583.6 68.6 584.1 68.8C584.5 69 585.1 69.1001 585.7 69.1001C586.2 69.1001 586.7 69 587 68.9C587.4 68.7 587.6 68.5 587.8 68.3C588 68 588.1 67.7 588.1 67.3C588.1 66.8 588 66.4001 587.8 66.2001C587.6 65.9001 587.3 65.7001 586.8 65.6001C586.4 65.5001 585.9 65.4 585.2 65.3C584.5 65.2 583.9 65.1 583.4 64.9C582.9 64.7 582.4 64.5 582.1 64.3C581.7 64 581.5 63.7 581.3 63.3C581.1 62.9 581 62.4 581 61.9C581 61.3 581.2 60.7001 581.5 60.2001C581.9 59.7001 582.4 59.3001 583 59.1001C583.6 58.9001 584.4 58.7001 585.3 58.7001C586.6 58.7001 587.6 59.0001 588.4 59.6001C589.2 60.2001 589.6 61 589.7 62H587.8C587.7 61.5 587.5 61.0001 587 60.7001C586.6 60.4001 586 60.2001 585.2 60.2001C584.4 60.2001 583.8 60.3001 583.4 60.6001C583 60.9001 582.8 61.2001 582.8 61.7001C582.8 62.0001 582.9 62.3001 583.1 62.6001C583.3 62.9001 583.6 63.1 584 63.3C584.4 63.5 585 63.6001 585.7 63.7001C586.6 63.8001 587.4 64.0001 588 64.2001C588.6 64.4001 589.1 64.8001 589.4 65.2001C589.7 65.7001 589.9 66.3001 589.9 67.1001C589.9 67.9001 589.7 68.5 589.3 69C588.9 69.5 588.4 69.9001 587.7 70.2001C587.4 70.6001 586.6 70.7001 585.7 70.7001Z" fill="white"/>
<path d="M597.3 70.7001C596.4 70.7001 595.6 70.5001 595 70.2001C594.3 69.9001 593.8 69.4001 593.5 68.7001C593.1 68.0001 593 67.2001 593 66.2001V58.8H594.9V66C594.9 67 595.2 67.8 595.7 68.3C596.2 68.8 596.9 69.1001 597.8 69.1001C598.4 69.1001 599 69.0001 599.4 68.7001C599.9 68.4001 600.3 68 600.6 67.5C600.9 67 601 66.3001 601 65.6001V58.9H602.9V70.5H601.2L601.1 68.7001C600.8 69.4001 600.3 69.9 599.6 70.3C599 70.6 598.2 70.7001 597.3 70.7001Z" fill="white"/>
<path d="M611.4 69.2001C612.1 69.2001 612.7 69.0001 613.3 68.7001C613.9 68.4001 614.3 67.9001 614.6 67.2001C614.9 66.5001 615.1 65.7001 615.1 64.7001C615.1 63.7001 614.9 62.9001 614.6 62.2001C614.3 61.5001 613.8 61.0001 613.3 60.7001C612.7 60.4001 612.1 60.2001 611.4 60.2001C610.7 60.2001 610.1 60.4001 609.5 60.7001C608.9 61.0001 608.5 61.5001 608.1 62.2001C607.8 62.9001 607.6 63.7001 607.6 64.7001C607.6 65.7001 607.8 66.5001 608.1 67.2001C608.4 67.9001 608.9 68.4001 609.4 68.7001C610.1 69.0001 610.7 69.2001 611.4 69.2001ZM611.4 70.7001C610.3 70.7001 609.3 70.5 608.4 70C607.5 69.5 606.9 68.8 606.4 67.9C605.9 67 605.7 65.9001 605.7 64.7001C605.7 63.5001 605.9 62.4 606.4 61.5C606.9 60.6 607.6 59.9 608.4 59.4C609.3 58.9 610.3 58.7001 611.4 58.7001C612.5 58.7001 613.5 58.9 614.4 59.4C615.2 59.9 615.9 60.6 616.4 61.5C616.9 62.4 617.1 63.5001 617.1 64.7001C617.1 65.9001 616.9 67 616.4 67.9C615.9 68.8 615.3 69.5 614.4 70C613.5 70.5 612.5 70.7001 611.4 70.7001Z" fill="white"/>
<path d="M619.9 70.5V58.9H621.6L621.7 60.7001C622.1 60.0001 622.6 59.5001 623.2 59.2001C623.9 58.8001 624.6 58.7001 625.5 58.7001C626.4 58.7001 627.2 58.9001 627.8 59.2001C628.5 59.5001 629 60.0001 629.3 60.7001C629.7 61.4001 629.9 62.2001 629.9 63.2001V70.6001H628V63.4C628 62.4 627.7 61.6001 627.2 61.1001C626.7 60.6001 626 60.3 625.1 60.3C624.5 60.3 624 60.4001 623.5 60.7001C623 61.0001 622.6 61.4 622.3 61.9C622 62.4 621.9 63.1 621.9 63.8V70.5H619.9Z" fill="white"/>
<path d="M638.3 69.2001C639 69.2001 639.6 69.0001 640.2 68.7001C640.8 68.4001 641.2 67.9001 641.5 67.2001C641.8 66.5001 642 65.7001 642 64.7001C642 63.7001 641.8 62.9001 641.5 62.2001C641.2 61.5001 640.7 61.0001 640.2 60.7001C639.6 60.4001 639 60.2001 638.3 60.2001C637.6 60.2001 637 60.4001 636.4 60.7001C635.8 61.0001 635.4 61.5001 635 62.2001C634.7 62.9001 634.5 63.7001 634.5 64.7001C634.5 65.7001 634.7 66.5001 635 67.2001C635.3 67.9001 635.8 68.4001 636.3 68.7001C637 69.0001 637.6 69.2001 638.3 69.2001ZM638.3 70.7001C637.2 70.7001 636.2 70.5 635.3 70C634.4 69.5 633.8 68.8 633.3 67.9C632.8 67 632.6 65.9001 632.6 64.7001C632.6 63.5001 632.8 62.4 633.3 61.5C633.8 60.6 634.5 59.9 635.3 59.4C636.2 58.9 637.2 58.7001 638.3 58.7001C639.4 58.7001 640.4 58.9 641.3 59.4C642.1 59.9 642.8 60.6 643.3 61.5C643.8 62.4 644 63.5001 644 64.7001C644 65.9001 643.8 67 643.3 67.9C642.8 68.8 642.2 69.5 641.3 70C640.4 70.5 639.5 70.7001 638.3 70.7001Z" fill="white"/>
<path d="M548.4 95.5C549.2 95.5 549.8 95.3 550.4 95C551 94.6 551.4 94.1 551.7 93.5C552 92.8 552.2 92.0001 552.2 91.1001C552.2 90.2001 552 89.4001 551.7 88.7001C551.4 88.0001 551 87.5001 550.4 87.2001C549.8 86.8001 549.2 86.7001 548.4 86.7001C547.7 86.7001 547 86.9001 546.5 87.2001C545.9 87.6001 545.5 88.1001 545.2 88.7001C544.9 89.4001 544.7 90.2001 544.7 91.1001C544.7 92.0001 544.9 92.8 545.2 93.5C545.5 94.2 546 94.7 546.5 95C547.1 95.3 547.7 95.5 548.4 95.5ZM548.2 97.1001C547.1 97.1001 546.2 96.8 545.4 96.3C544.6 95.8 543.9 95.1001 543.5 94.1001C543 93.2001 542.8 92.1 542.8 91C542.8 89.8 543 88.8 543.5 87.9C544 87 544.6 86.3 545.4 85.8C546.2 85.3 547.2 85 548.3 85C549.2 85 550.1 85.2 550.7 85.5C551.4 85.9 551.9 86.4 552.3 87V80.9H554.2V96.7001H552.5L552.3 94.9C552.1 95.3 551.8 95.6 551.4 95.9C551 96.2 550.6 96.5001 550 96.7001C549.5 97.0001 548.9 97.1001 548.2 97.1001Z" fill="white"/>
<path d="M562.4 97.1001C561.3 97.1001 560.4 96.9 559.6 96.4C558.8 95.9 558.1 95.2 557.7 94.3C557.2 93.4 557 92.3001 557 91.1001C557 89.9001 557.2 88.8 557.7 87.9C558.2 87 558.8 86.3 559.6 85.8C560.4 85.3 561.4 85.1001 562.5 85.1001C563.7 85.1001 564.6 85.3 565.4 85.8C566.2 86.3 566.8 87 567.2 87.8C567.6 88.6 567.8 89.6 567.8 90.5V90.9C567.8 91 567.8 91.2 567.8 91.4H558.5V90H566C566 88.9 565.6 88 565 87.4C564.4 86.8 563.5 86.5 562.6 86.5C562 86.5 561.4 86.7 560.8 87C560.3 87.3 559.8 87.7 559.5 88.3C559.2 88.9 559 89.6 559 90.5V91.1001C559 92.1001 559.2 92.9 559.5 93.5C559.8 94.2 560.3 94.6 560.8 95C561.3 95.3 561.9 95.5 562.6 95.5C563.5 95.5 564.1 95.3 564.6 95C565.1 94.7 565.4 94.2001 565.7 93.6001H567.6C567.4 94.2001 567.1 94.8 566.6 95.3C566.2 95.8 565.6 96.2 564.9 96.5C564.1 97 563.3 97.1001 562.4 97.1001Z" fill="white"/>
<path d="M572.3 80.9998H570.4V96.7998H572.3V80.9998Z" fill="white"/>
<path d="M583.6 80.9998H581.7V96.7998H583.6V80.9998Z" fill="white"/>
<path d="M590.9 95.6001C591.4 95.6001 591.9 95.5 592.3 95.3C592.7 95.1 593.1 94.8 593.4 94.4C593.7 94 594 93.6001 594.1 93.1001C594.3 92.6001 594.4 92.1001 594.4 91.6001V91.4H591.6C590.9 91.4 590.3 91.5001 589.8 91.7001C589.3 91.9001 589 92.1 588.8 92.4C588.6 92.7 588.5 93.1 588.5 93.5C588.5 93.9 588.6 94.3001 588.8 94.6001C589 94.9001 589.3 95.2 589.6 95.3C590 95.5 590.4 95.6001 590.9 95.6001ZM590.7 97.1001C589.8 97.1001 589 96.9001 588.4 96.6001C587.8 96.3001 587.3 95.8 587 95.3C586.7 94.8 586.5 94.2 586.5 93.5C586.5 92.7 586.7 92.1001 587.1 91.6001C587.5 91.1001 588.1 90.7 588.8 90.4C589.5 90.1 590.4 90 591.4 90H594.4C594.4 89.3 594.3 88.6001 594.1 88.1001C593.9 87.6001 593.6 87.2 593.2 87C592.8 86.8 592.2 86.6001 591.6 86.6001C591 86.6001 590.3 86.8001 589.8 87.1001C589.3 87.4001 589 87.9001 588.9 88.6001H586.9C587 87.8001 587.3 87.2001 587.7 86.7001C588.1 86.2001 588.7 85.8 589.4 85.5C590.1 85.2 590.8 85.1001 591.6 85.1001C592.7 85.1001 593.6 85.3001 594.3 85.7001C595 86.1001 595.5 86.6 595.9 87.3C596.2 88 596.4 88.8001 596.4 89.7001V97H594.7L594.6 95C594.4 95.3 594.3 95.6 594 95.9C593.8 96.2 593.5 96.4001 593.2 96.6001C592.9 96.8001 592.5 97.0001 592.1 97.1001C591.6 97.1001 591.1 97.1001 590.7 97.1001Z" fill="white"/>
<path d="M602.6 96.8995L598 85.2996H600L603.7 95.0996L607.4 85.2996H609.4L604.8 96.8995H602.6Z" fill="white"/>
<path d="M616.1 95.5C616.8 95.5 617.4 95.3 618 95C618.6 94.7 619 94.2 619.3 93.5C619.6 92.8 619.8 92 619.8 91C619.8 90 619.6 89.2 619.3 88.5C619 87.8 618.5 87.3 618 87C617.4 86.7 616.8 86.5 616.1 86.5C615.4 86.5 614.8 86.7 614.2 87C613.6 87.3 613.2 87.8 612.8 88.5C612.5 89.2 612.3 90 612.3 91C612.3 92 612.5 92.8 612.8 93.5C613.1 94.2 613.6 94.7 614.1 95C614.8 95.4 615.5 95.5 616.1 95.5ZM616.1 97.1001C615 97.1001 614 96.9 613.1 96.4C612.2 95.9 611.6 95.2 611.1 94.3C610.6 93.4 610.4 92.3001 610.4 91.1001C610.4 89.9001 610.6 88.8 611.1 87.9C611.6 87 612.3 86.3 613.1 85.8C614 85.3 615 85.1001 616.1 85.1001C617.2 85.1001 618.2 85.3 619.1 85.8C619.9 86.3 620.6 87 621.1 87.9C621.6 88.8 621.8 89.9001 621.8 91.1001C621.8 92.3001 621.6 93.4 621.1 94.3C620.6 95.2 620 95.9 619.1 96.4C618.3 96.9 617.3 97.1001 616.1 97.1001Z" fill="white"/>
<path d="M624.6 96.9V85.3H626.3L626.4 87.4C626.7 86.9 627 86.4001 627.5 86.1001C627.9 85.7001 628.5 85.5 629.1 85.3C629.7 85.1 630.4 85 631.2 85V86.9H630C629.5 86.9 629.1 87.0001 628.7 87.1001C628.3 87.2001 627.9 87.4001 627.5 87.7001C627.2 88.0001 626.9 88.3 626.7 88.8C626.5 89.3 626.4 89.8 626.4 90.5V96.9H624.6Z" fill="white"/>
<path d="M638.3 95.5C639 95.5 639.6 95.3 640.2 95C640.8 94.7 641.2 94.2 641.5 93.5C641.8 92.8 642 92 642 91C642 90 641.8 89.2 641.5 88.5C641.2 87.8 640.7 87.3 640.2 87C639.6 86.7 639 86.5 638.3 86.5C637.6 86.5 637 86.7 636.4 87C635.8 87.3 635.4 87.8 635 88.5C634.7 89.2 634.5 90 634.5 91C634.5 92 634.7 92.8 635 93.5C635.3 94.2 635.8 94.7 636.3 95C637 95.4 637.6 95.5 638.3 95.5ZM638.3 97.1001C637.2 97.1001 636.2 96.9 635.3 96.4C634.4 95.9 633.8 95.2 633.3 94.3C632.8 93.4 632.6 92.3001 632.6 91.1001C632.6 89.9001 632.8 88.8 633.3 87.9C633.8 87 634.5 86.3 635.3 85.8C636.2 85.3 637.2 85.1001 638.3 85.1001C639.4 85.1001 640.4 85.3 641.3 85.8C642.1 86.3 642.8 87 643.3 87.9C643.8 88.8 644 89.9001 644 91.1001C644 92.3001 643.8 93.4 643.3 94.3C642.8 95.2 642.2 95.9 641.3 96.4C640.4 96.9 639.5 97.1001 638.3 97.1001Z" fill="white"/>
</svg>
